<?xml version="1.0" standalone="no"?>
<!DOCTYPE svg PUBLIC "-//W3C//DTD SVG 1.1//EN" "http://www.w3.org/Graphics/SVG/1.1/DTD/svg11.dtd" >
<svg xmlns="http://www.w3.org/2000/svg">
<defs>
<font id="CicleFinaItalic" horiz-adv-x="1220" >
  <font-face 
    font-family="Cicle"
    font-weight="300"
    font-style="italic"
    font-stretch="normal"
    units-per-em="2048"
    panose-1="2 0 0 0 0 0 0 0 0 0"
    ascent="1638"
    descent="-410"
    x-height="1024"
    cap-height="1415"
    bbox="0 -410 2208 1702"
    underline-thickness="102"
    underline-position="-102"
    unicode-range="U+0020-U+00FF"
  />
<missing-glyph horiz-adv-x="748" 
d="M68 0v1365h544v-1365h-544zM136 68h408v1229h-408v-1229z" />
    <glyph glyph-name=".notdef" horiz-adv-x="748" 
d="M68 0v1365h544v-1365h-544zM136 68h408v1229h-408v-1229z" />
    <glyph glyph-name=".null" horiz-adv-x="0" 
 />
    <glyph glyph-name="nonmarkingreturn" horiz-adv-x="682" 
 />
    <glyph glyph-name="space" unicode=" " horiz-adv-x="526" 
 />
    <glyph glyph-name="exclam" unicode="!" horiz-adv-x="360" 
d="M219 31q-12 -49 -57 -49q-20 0 -31.5 14t-7.5 35q2 20 20.5 33.5t38.5 13.5q41 0 37 -47zM172 203l256 1212h74l-256 -1212h-74z" />
    <glyph glyph-name="quotedbl" unicode="&#x22;" horiz-adv-x="444" 
d="M338 1135l37 280h98l-12 -129l-113 -164zM492 1135l36 280h99l-13 -129l-112 -164z" />
    <glyph glyph-name="numbersign" unicode="#" horiz-adv-x="1462" 
d="M162 453l94 90h217l168 293h-397l92 90h358l228 393h92l-226 -393h492l227 393h92l-225 -393h238l-92 -90h-199l-170 -293h381l-94 -90h-340l-258 -453h-95l261 453h-494l-258 -453h-94l260 453h-258zM735 836l-170 -293h494l168 293h-492z" />
    <glyph glyph-name="dollar" unicode="$" horiz-adv-x="954" 
d="M592 750l125 585q-119 -23 -214 -102.5t-116 -181.5q-23 -106 34.5 -190t170.5 -111zM657 651l-122 -579q119 16 216 93t119 183q23 109 -37.5 194.5t-175.5 108.5zM754 1509h86l-19 -88q217 0 324 -157l-82 -56q-84 133 -258 133l-129 -606q154 -31 234.5 -137
t52.5 -244q-31 -143 -158 -246.5t-289 -121.5l-27 -121h-86l27 117q-8 2 -22 2q-104 10 -181 61t-114 129l80 55q31 -68 99 -114.5t157 -46.5l124 594q-154 29 -231.5 135t-46.5 245q31 145 153.5 249t286.5 126z" />
    <glyph glyph-name="ampersand" unicode="&#x26;" horiz-adv-x="1222" 
d="M508 0q-180 0 -277.5 113.5t-64.5 271.5q53 246 405 395l60 25l-29 43q-72 102 -89 165.5t-3 125.5q25 113 132.5 198.5t246.5 85.5q129 0 196.5 -78.5t44.5 -191.5q-37 -178 -323 -319l-51 -25l250 -422l41 57q68 92 102 174l96 -22q-86 -168 -182 -274l-12 -41v-7
q27 -61 43 -86.5t59 -68.5l-23 -105q-14 10 -27 23.5l-22.5 23t-23 29l-18.5 26.5t-22.5 33.5l-21.5 32.5l-22 37l-41 -37q-201 -186 -424 -182zM1030 1149q18 90 -27 151.5t-137 61.5q-86 0 -161.5 -59.5t-92.5 -145.5q-18 -92 41 -180l78 -119l33 16q133 70 190.5 130.5
t75.5 144.5zM655 758l-37 -21q-303 -158 -339 -342q-27 -121 41.5 -221t201.5 -100q92 -2 199.5 54t183.5 142l21 25z" />
    <glyph glyph-name="quotesingle" unicode="'" horiz-adv-x="247" 
d="M383 1276l12 129l101 10l-13 -129l-186 -160l-8 13z" />
    <glyph glyph-name="parenleft" unicode="(" horiz-adv-x="532" 
d="M627 1423l18 -100q-98 -96 -186 -294t-140 -437q-55 -268 -45.5 -475t78.5 -291l-67 -86q-86 106 -104.5 333.5t40.5 518.5q57 270 169 496t237 335z" />
    <glyph glyph-name="parenright" unicode=")" horiz-adv-x="503" 
d="M428 1323l59 100q78 -111 94.5 -333t-40.5 -498q-59 -283 -176 -514.5t-248 -337.5l-35 86q106 84 204.5 292t155.5 474q51 242 47 438.5t-61 292.5z" />
    <glyph glyph-name="asterisk" unicode="*" horiz-adv-x="964" 
d="M750 1044l-54 -249h-86l54 247l-213 -174l-50 60l213 178h-245l18 84h248l-139 176l73 61l138 -176l53 250h86l-53 -250l215 176l47 -59l-213 -176h250l-19 -86h-250l140 -178l-72 -60z" />
    <glyph glyph-name="plus" unicode="+" horiz-adv-x="925" 
d="M629 559l-68 -311h-86l68 311h-310l17 86h309l68 309h86l-68 -309h311l-16 -86h-311z" />
    <glyph glyph-name="comma" unicode="," horiz-adv-x="354" 
d="M160 0l26 131h99l-27 -131l-199 -141l-8 12z" />
    <glyph glyph-name="hyphen" unicode="-" horiz-adv-x="862" 
d="M911 559h-706l16 86h707z" />
    <glyph glyph-name="period" unicode="." horiz-adv-x="296" 
d="M88 0l27 131h131l-27 -131h-131z" />
    <glyph glyph-name="slash" unicode="/" horiz-adv-x="774" 
d="M1001 1415l-815 -1415h-94l817 1415h92z" />
    <glyph glyph-name="zero" unicode="0" horiz-adv-x="1200" 
d="M324 705q-57 -264 31.5 -450.5t267.5 -186.5q180 0 345 185t222 452q55 264 -32 448t-267 184q-178 0 -345 -185t-222 -447zM237.5 704.5q63.5 296.5 261 507.5t410.5 211q215 0 321.5 -209.5t43.5 -508.5q-66 -299 -260.5 -511t-409.5 -212q-213 0 -321.5 213t-45 509.5
z" />
    <glyph glyph-name="one" unicode="1" horiz-adv-x="538" 
d="M379 1143l-49 59l303 213h86l-299 -1415h-86l276 1305z" />
    <glyph glyph-name="two" unicode="2" horiz-adv-x="972" 
d="M913 690l-665 -606h657l-16 -84h-772l16 84l739 668q109 98 140 233q31 150 -52 251t-235 101q-143 0 -270 -100l-49 61q166 125 337 125q184 0 289 -129t66 -309q-38 -170 -185 -295z" />
    <glyph glyph-name="three" unicode="3" horiz-adv-x="882" 
d="M80 123l72 59q82 -121 247 -121q143 0 264 92.5t148 221.5q27 117 -47 205t-205 100h-190l18 86h191q137 8 247.5 90t135.5 195q25 121 -58.5 204.5t-224.5 83.5q-178 0 -303 -112l-47 61q154 135 366 135q180 0 285.5 -108.5t73.5 -263.5q-25 -106 -111 -195.5
t-203 -134.5q96 -49 139.5 -142.5t18.5 -203.5q-35 -166 -185.5 -282t-330.5 -116q-98 0 -177 40t-124 106z" />
    <glyph glyph-name="four" unicode="4" horiz-adv-x="968" 
d="M707 520h-521l19 86h4l639 809l65 -41l-608 -768h420l68 316h86l-68 -316h203l-19 -86h-202l-109 -520h-86z" />
    <glyph glyph-name="five" unicode="5" horiz-adv-x="1032" 
d="M340 721h-86l197 694h755l-18 -86h-670l-145 -459q158 143 350 144q190 0 290.5 -147.5t55.5 -356.5q-45 -211 -208 -360.5t-353 -149.5q-109 0 -193 54.5t-127 146.5l72 59q31 -82 100.5 -128t163.5 -46q154 0 288 124t171 300q39 176 -43 298t-235 122
q-104 0 -203 -57.5t-162 -151.5z" />
    <glyph glyph-name="six" unicode="6" horiz-adv-x="1036" 
d="M1059 424q0 -2 -1 -8t-1 -10q-39 -178 -189.5 -300t-328.5 -122q-170 0 -267.5 117.5t-68.5 289.5l2 6q10 92 61 328q41 193 96 334q63 154 204 258t296 108q231 0 330 -178l-98 -53q-33 68 -98.5 106.5t-147.5 38.5q-127 0 -245 -88t-169 -219q-53 -131 -98 -332
q-2 -10 -5 -30.5t-5 -30.5q152 184 381 195q180 0 283.5 -117t68.5 -293zM975 420q25 139 -54 234.5t-220.5 95.5t-262.5 -104.5t-149 -246.5q-29 -137 51 -235t219 -98t261 99t151 236q0 4 2 10.5t2 8.5z" />
    <glyph glyph-name="seven" unicode="7" horiz-adv-x="907" 
d="M92 0l899 1329h-573l18 86h717l-958 -1415h-103z" />
    <glyph glyph-name="eight" unicode="8" horiz-adv-x="940" 
d="M150 391q25 121 109.5 220.5t199.5 152.5q-74 45 -108 127t-13 178q33 145 161 249.5t277 104.5q154 0 240 -104.5t53 -249.5q-20 -98 -87 -179t-163 -126q96 -51 137 -150.5t15 -222.5q-35 -170 -181.5 -289.5t-318.5 -119.5q-168 0 -262 120.5t-59 288.5zM424 1069
q-23 -109 42.5 -187.5t178.5 -78.5q117 0 215 79t121 187q25 113 -41 190.5t-182 77.5q-115 0 -212 -77.5t-122 -190.5zM236 391q-29 -131 46.5 -227t206.5 -96q135 0 251 96t145 227q29 135 -46 231.5t-212 96.5q-131 0 -246.5 -96.5t-144.5 -231.5z" />
    <glyph glyph-name="nine" unicode="9" horiz-adv-x="1001" 
d="M289 985q0 2 1 7t1 7q37 176 188.5 301t327.5 125t274.5 -119.5t69.5 -291.5l-2 -6q-12 -96 -68 -344q-37 -180 -90 -314q-63 -160 -211.5 -262t-314.5 -102q-98 0 -181 46t-128 122l98 67q76 -147 244 -147q135 0 250.5 84t171.5 215q55 150 92 323q8 45 14 70
q-166 -186 -401 -186q-170 0 -269.5 117.5t-66.5 287.5zM371 989q-23 -135 56 -230t214 -95q145 0 268 99t154 243q29 133 -53 232t-219 99q-143 0 -266 -103.5t-154 -244.5z" />
    <glyph glyph-name="colon" unicode=":" horiz-adv-x="372" 
d="M125 0l27 131h131l-27 -131h-131zM313 893l29 131h131l-29 -131h-131z" />
    <glyph glyph-name="semicolon" unicode=";" horiz-adv-x="346" 
d="M313 893l29 131h131l-29 -131h-131zM137 0l27 131h98l-26 -131l-199 -141l-8 12z" />
    <glyph glyph-name="less" unicode="&#x3c;" horiz-adv-x="675" 
d="M166 508l606 504l49 -60l-534 -444l348 -434l-74 -64z" />
    <glyph glyph-name="equal" unicode="=" horiz-adv-x="901" 
d="M313 807l21 90h686l-21 -90h-686zM229 410l19 90h686l-19 -90h-686z" />
    <glyph glyph-name="greater" unicode="&#x3e;" horiz-adv-x="688" 
d="M358 1012l390 -504l-605 -498l-49 64l533 434l-346 444z" />
    <glyph glyph-name="question" unicode="?" horiz-adv-x="839" 
d="M475 0h-90l-47 657l16 84h193q121 2 221 88t127 207q27 127 -40 215t-185 88q-162 0 -281 -147l-47 59q68 78 159 125t185 47q156 0 242 -113.5t51 -273.5q-33 -154 -165 -266.5t-284 -112.5h-108zM381 -197q4 23 24.5 38.5t43.5 15.5q51 0 40 -54q-4 -25 -22 -42
t-43 -17q-23 0 -35 17t-8 42z" />
    <glyph glyph-name="at" unicode="@" horiz-adv-x="1544" 
d="M1126 379q47 0 133.5 60.5t145.5 144.5q33 45 65.5 128t45.5 138q41 195 -77 332t-347 137q-262 0 -474 -182.5t-272 -456.5q-57 -268 78 -419.5t432 -151.5q176 0 322.5 61t232.5 160l4 4h129l-14 -19q-100 -133 -284.5 -223t-409.5 -90q-334 0 -498 173t-96 493
q68 326 313.5 540.5t564.5 214.5q256 0 404.5 -156.5t93.5 -418.5q-41 -195 -195.5 -367t-332.5 -192q-119 6 -138 61q-86 -68 -186 -67q-109 0 -168 77.5t-37 188.5q25 113 119 188.5t207 75.5h164l4 25l-6 -29q51 233 -45 233q-86 0 -146 -20l-12 -2l-2 90l10 2
q78 23 168 23h2q168 -6 115 -308l8 27q-39 -162 -70 -309q-2 -14 -12 -45t-12 -47.5t0 -36t20 -28.5t53 -9zM1006 549l38 182h-176q-80 0 -147.5 -51t-85.5 -131q-16 -78 27 -131t120 -53q76 0 143 54t81 130z" />
    <glyph glyph-name="A" unicode="A" 
d="M547 674h436l-92 590zM66 0l821 1415h71l224 -1415h-90l-95 588h-497l-344 -588h-90z" />
    <glyph glyph-name="B" unicode="B" horiz-adv-x="1048" 
d="M563 4l-37 -4h-415l299 1415h86h366q154 -2 242 -105.5t59 -242.5q-20 -102 -93 -186t-177 -131q96 -45 139 -139.5t19 -209.5q-35 -162 -176.5 -278.5t-311.5 -118.5zM846 1333h-37h-330l-114 -536h366q123 4 223.5 80.5t122.5 189.5q23 104 -44.5 182t-186.5 84z
M543 86h37q133 6 245.5 98t139.5 217q27 121 -47 211t-205 99h-367l-133 -625h330z" />
    <glyph glyph-name="C" unicode="C" horiz-adv-x="1208" 
d="M1403 1227l-72 -64l2 6q-125 168 -346 168q-227 0 -430 -184t-258 -446.5t64.5 -449.5t355.5 -187q209 0 411 166l46 -58q-229 -197 -476 -196q-256 0 -403 215t-86 510q61 289 294.5 502.5t500.5 213.5q125 0 228 -52t169 -144z" />
    <glyph glyph-name="D" unicode="D" horiz-adv-x="1177" 
d="M881 1329h-437l-264 -1243h441l2 4q168 4 324.5 185.5t209.5 435.5q53 252 -26.5 434t-249.5 184zM78 0l299 1415h86h436q205 -2 305.5 -208t39 -496.5t-247 -496.5t-392.5 -210v-4h-526z" />
    <glyph glyph-name="E" unicode="E" horiz-adv-x="993" 
d="M971 797l-19 -86h-624l-133 -625h731l-17 -86h-817l299 1415h817l-16 -82h-731l-115 -536h625z" />
    <glyph glyph-name="F" unicode="F" horiz-adv-x="997" 
d="M979 797l-18 -86h-625l-150 -711h-86l299 1415h818l-17 -80h-731l-115 -538h625z" />
    <glyph glyph-name="G" unicode="G" horiz-adv-x="1236" 
d="M1178 180v-6q-229 -193 -482 -192q-176 0 -304 96t-180 262t-11 360q63 299 298.5 511t501.5 212q256 0 400 -196l-70 -60q-129 168 -348 168q-233 0 -436 -185t-260 -450q-55 -262 69.5 -449.5t356.5 -187.5q203 0 385 146l86 405h-391l18 82h477z" />
    <glyph glyph-name="H" unicode="H" horiz-adv-x="1142" 
d="M1118 711h-780l-150 -711h-86l299 1415h86l-131 -618h781l131 618h86l-299 -1415h-86z" />
    <glyph glyph-name="I" unicode="I" horiz-adv-x="282" 
d="M487 1415l-299 -1415h-86l299 1415h86z" />
    <glyph glyph-name="J" unicode="J" horiz-adv-x="624" 
d="M801 1415l-228 -1071q-31 -147 -132 -254.5t-208 -107.5q-92 0 -147 86l68 59q39 -59 98 -59q74 0 140.5 77.5t92.5 194.5l228 1075h88z" />
    <glyph glyph-name="K" unicode="K" horiz-adv-x="1193" 
d="M391 1415h86l-164 -770l824 770h116l-657 -614l514 -801h-111l-473 735l-239 -223l-109 -512h-86z" />
    <glyph glyph-name="L" unicode="L" horiz-adv-x="927" 
d="M477 1415l-282 -1329h690l-17 -86h-776l299 1415h86z" />
    <glyph glyph-name="M" unicode="M" horiz-adv-x="1275" 
d="M758 625l626 790h89l-299 -1415h-89l265 1249l-592 -747h-53l-283 747l-264 -1249h-86l299 1415h86z" />
    <glyph glyph-name="N" unicode="N" horiz-adv-x="1099" 
d="M397 1415h84l469 -1243l264 1243h86l-299 -1415h-86l-469 1249l-264 -1249h-84z" />
    <glyph glyph-name="O" unicode="O" horiz-adv-x="1413" 
d="M1335 1167q-117 168 -348 168t-432 -183t-256 -445q-57 -266 64.5 -451.5t355.5 -185.5q238 0 438.5 184t257.5 453q59 278 -80 460zM1188 180q-225 -199 -487.5 -198.5t-409 210t-80.5 515.5q63 297 295.5 506.5t499.5 209.5q274 0 414.5 -207.5t76.5 -508.5
q-67 -320 -309 -527z" />
    <glyph glyph-name="P" unicode="P" horiz-adv-x="983" 
d="M668 709h-322l-149 -709h-86l299 1415h407q166 0 261.5 -102.5t64.5 -245.5q-33 -150 -171 -254t-304 -104zM795 1333h-316l-114 -538h321q129 0 236.5 78.5t132.5 193.5q23 109 -52 187.5t-202 78.5h-6z" />
    <glyph glyph-name="Q" unicode="Q" horiz-adv-x="1361" 
d="M1274 1190q-117 160 -316 160q-211 0 -401 -174.5t-242 -421.5q-51 -240 61.5 -413t323.5 -179q4 37 -17 62.5t-60 23.5l16 74q70 2 109.5 -42t35.5 -114q193 37 354.5 204t209.5 384q57 264 -74 436zM1137 272q-166 -150 -369 -178q-6 -66 12.5 -108.5t50.5 -42.5
q43 0 72 47l47 -49q-74 -78 -137 -78q-61 0 -96 64.5t-29 158.5q-240 6 -375 199.5t-75 468.5q59 283 276 476t459 193q244 0 380 -194.5t77 -474.5q-31 -139 -109 -264.5t-184 -217.5z" />
    <glyph glyph-name="R" unicode="R" horiz-adv-x="970" 
d="M330 711h-4l-150 -711h-86l299 1415h406q168 0 263 -102.5t64 -247.5q-31 -147 -170 -250.5t-307 -103.5h-203l476 -711h-111zM774 1335h-315l-115 -538h320q129 0 238.5 77.5t133.5 190.5q23 111 -53 190.5t-205 79.5h-4z" />
    <glyph glyph-name="S" unicode="S" horiz-adv-x="993" 
d="M131 174l80 55q74 -162 289 -161q133 0 247.5 80.5t139.5 197.5q27 117 -43 205t-199 104h-6q-172 16 -265 128t-61 261q33 160 183.5 268.5t332.5 108.5q227 0 334 -157l-82 -56q-84 133 -268 133q-137 0 -259 -85t-148.5 -203.5t49 -209.5t211.5 -104q166 -23 256 -132
t59 -253q-33 -156 -179.5 -264t-324.5 -108q-121 0 -213 53t-133 139z" />
    <glyph glyph-name="T" unicode="T" horiz-adv-x="1177" 
d="M1380 1333h-460l-283 -1333h-86l283 1333h-463l16 82h549h461z" />
    <glyph glyph-name="U" unicode="U" horiz-adv-x="1224" 
d="M481 1415l-225 -1061q-16 -119 92.5 -201.5t284.5 -82.5q170 0 311 83t174 201l225 1061h87l-226 -1061q-39 -154 -212 -263t-378 -109q-211 0 -342 109.5t-108 262.5l225 1061h92z" />
    <glyph glyph-name="V" unicode="V" horiz-adv-x="1308" 
d="M612 0l-223 1415h90l205 -1288l750 1288h90l-822 -1415h-90z" />
    <glyph glyph-name="W" unicode="W" horiz-adv-x="1873" 
d="M2068 1415l-819 -1415h-94l-96 604l-348 -604h-93l-223 1415h90l207 -1288l348 604l-106 684h90l88 -563l117 -725l747 1288h92z" />
    <glyph glyph-name="X" unicode="X" horiz-adv-x="1107" 
d="M655 725l-258 690h97l237 -618l496 618h100l-563 -704l264 -711h-100l-242 639l-510 -639h-96z" />
    <glyph glyph-name="Y" unicode="Y" horiz-adv-x="1394" 
d="M1505 1415h115l-743 -774l-136 -641h-88l135 641l-415 774h116l359 -692z" />
    <glyph glyph-name="Z" unicode="Z" horiz-adv-x="1122" 
d="M1352 1415l-1108 -1329h753l-16 -86h-850h-59l1110 1329h-770l18 86h850h72z" />
    <glyph glyph-name="bracketleft" unicode="[" horiz-adv-x="430" 
d="M326 96q0 -10 32 -10l-16 -86q-41 0 -76 27.5t-28 68.5l106 496q8 39 -12.5 65.5t-59.5 26.5h-41l19 86h41q39 0 70.5 26.5t39.5 65.5l99 461v4l2 6q14 37 54 59.5t85 22.5l-18 -88q-35 0 -35 -4l-105 -485q-14 -27 -43.5 -47.5t-58.5 -20.5l-19 -86q31 0 52.5 -17.5
t23.5 -48.5z" />
    <glyph glyph-name="backslash" unicode="\" horiz-adv-x="759" 
d="M608 0l-217 1415h92l219 -1415h-94z" />
    <glyph glyph-name="bracketright" unicode="]" horiz-adv-x="374" 
d="M119 96l112 522q27 66 95 66l22 86q-33 0 -51 19.5t-21 48.5l105 485q-6 4 -41 4l18 88q51 0 80 -22.5t27 -59.5l2 -6v-4l-98 -461q-8 -39 9 -65.5t54 -26.5h43l-18 -86h-43q-37 0 -66 -25.5t-37 -66.5l-106 -496q-8 -39 -54.5 -67.5t-91.5 -28.5l17 86q27 0 43 10z" />
    <glyph glyph-name="asciicircum" unicode="^" horiz-adv-x="1128" 
d="M260 918l608 497l394 -500l-78 -61l-340 440l-539 -440z" />
    <glyph glyph-name="underscore" unicode="_" horiz-adv-x="1050" 
d="M946 0h-860l16 86h861z" />
    <glyph glyph-name="grave" unicode="`" horiz-adv-x="417" 
d="M528 1133l-184 178h135l96 -178h-47z" />
    <glyph glyph-name="a" unicode="a" horiz-adv-x="831" 
d="M662 0l16 82q-125 -102 -270 -102q-135 0 -213 91t-52 218q29 135 149 223t263 88h233l9 45q29 127 -13.5 215t-138.5 90h-2q-133 0 -244 -30l-4 81q129 35 267 35h2q119 -2 185 -103.5t44 -246.5l-4 -20q-43 -176 -78 -347q-68 -303 -53 -319h-96zM721 289l49 227h-233
q-109 0 -197 -63.5t-109 -163.5q-18 -92 39.5 -156.5t157.5 -64.5q102 0 188.5 64.5t104.5 156.5z" />
    <glyph glyph-name="b" unicode="b" horiz-adv-x="1071" 
d="M385 840l-139 -647q-10 -49 73.5 -87t208.5 -40q168 4 314.5 134t185.5 310q39 178 -53 309t-258 131q-119 0 -214 -31.5t-118 -78.5zM219 61l-12 -61h-101q6 8 21.5 56t27.5 92l11 45l260 1222h86l-96 -459q127 80 319 80q203 0 314.5 -155.5t64.5 -370.5
q-45 -217 -221 -371.5t-383 -158.5q-193 9 -291 81z" />
    <glyph glyph-name="c" unicode="c" horiz-adv-x="978" 
d="M1075 877l-74 -64q-90 137 -262 137q-168 0 -312 -129t-185 -313q-39 -182 52 -311t259 -129q170 0 313 131l49 -60q-184 -158 -380 -157q-201 0 -312.5 155.5t-66.5 370.5q45 217 223 372.5t379 155.5q206 1 317 -159z" />
    <glyph glyph-name="d" unicode="d" horiz-adv-x="1093" 
d="M1079 842q-4 45 -82.5 76.5t-197.5 31.5q-172 -4 -317.5 -131t-182.5 -303q-39 -180 53 -310t260 -136h4q127 6 221.5 43t104.5 84zM901 6l12 60q-119 -70 -319 -80q-203 4 -313.5 157.5t-65.5 372.5q45 215 222 366.5t380 153.5h4h-4q188 0 287 -80l96 459h86
l-258 -1218l-28 -159q-3 -28 1 -32h-100z" />
    <glyph glyph-name="e" unicode="e" horiz-adv-x="933" 
d="M504 66q113 0 282 75l19 -75q-111 -55 -262 -82h-2q-16 -2 -54 -2q-170 0 -264 142t-63 347l8 39q47 219 199.5 373.5t320.5 154.5q170 0 255 -149.5t38 -368.5l-10 -49h-723q-27 -170 47 -286.5t209 -118.5zM266 555h641q23 166 -44.5 280.5t-192.5 114.5
q-123 0 -239 -114.5t-165 -280.5z" />
    <glyph glyph-name="f" unicode="f" horiz-adv-x="671" 
d="M928 1419l-43 -84q-16 4 -72 4q-92 -2 -172 -85t-104 -199l-13 -54h271l-19 -88h-270l-193 -913h-80l193 913h-156l19 88h151q2 0 6 15l7 39l6 24q37 141 144.5 242.5t225.5 101.5q66 0 99 -4z" />
    <glyph glyph-name="g" unicode="g" horiz-adv-x="1128" 
d="M483 238q16 4 49 4q172 0 271.5 -94.5t71 -229.5t-169 -231.5t-312.5 -96.5q-168 0 -268 97.5t-72 230.5q20 90 94 166t179 117q-14 43 -2 96q16 72 67 111q-129 109 -94 274q31 145 172 249.5t311 104.5q68 0 150 -22h354l-102 -86h-129q92 -98 59 -246
q-31 -145 -171 -247.5t-310 -102.5q-37 0 -89.5 12t-74.5 12q-68 0 -78 -55q-14 -66 57 -65q8 0 20.5 1t16.5 1zM135 -82q-20 -100 60.5 -173t214.5 -73q139 0 250.5 73t134 173t-59.5 173t-219 73q-131 0 -244.5 -74t-136.5 -172zM381 682q-23 -111 55 -189.5t211 -78.5
q137 0 250 78.5t135 189.5q25 115 -53 193.5t-215 78.5q-135 0 -246.5 -78.5t-136.5 -193.5z" />
    <glyph glyph-name="h" unicode="h" horiz-adv-x="931" 
d="M397 1419h86l-114 -540q137 160 317 159q143 0 219 -108.5t47 -263.5l-135 -660h-86l141 660q20 121 -41 204.5t-174 83.5q-100 0 -194 -74.5t-133 -183.5l-148 -696h-86z" />
    <glyph glyph-name="i" unicode="i" horiz-adv-x="362" 
d="M135 0l217 1024h84l-217 -1024h-84zM401.5 1331.5q4.5 22.5 24.5 38.5t45 16q23 0 38 -17t11 -37.5t-26.5 -38t-44.5 -17.5q-25 0 -38.5 16.5t-9 39z" />
    <glyph glyph-name="j" unicode="j" horiz-adv-x="724" 
d="M684 1321q10 55 68 55q20 0 33.5 -15t9.5 -40q-6 -23 -25.5 -39t-40.5 -16q-27 0 -39 16t-6 39zM23 -397l26 80q16 0 45 -3.5t43 -3.5l6 7q88 0 166 80.5t101 193.5l227 1069h86l-231 -1089q-39 -139 -144.5 -238.5t-224.5 -104.5h-4q-20 0 -55 4.5t-41 4.5z" />
    <glyph glyph-name="k" unicode="k" horiz-adv-x="901" 
d="M512 1415l-156 -731l463 328h131l-366 -258l270 -754h-100l-250 692l-170 -121l-121 -571h-96q14 14 28 92l281 1323h86z" />
    <glyph glyph-name="l" unicode="l" horiz-adv-x="331" 
d="M135 0l299 1415h86l-299 -1415h-86z" />
    <glyph glyph-name="m" unicode="m" horiz-adv-x="1513" 
d="M389 1024l-20 -96l-13 -54q139 160 316 160q104 0 177 -63.5t93 -163.5q63 115 164.5 173t198.5 58q143 0 218.5 -107.5t47.5 -264.5l-137 -662h-86l141 662q23 119 -40 202.5t-171 83.5q-102 0 -196.5 -74.5t-131.5 -181.5l-147 -692h-86l139 658q23 121 -38.5 203.5
t-174.5 82.5q-100 0 -193.5 -73.5t-132.5 -182.5l-145 -692h-86l195 924q18 88 12 100h96z" />
    <glyph glyph-name="n" unicode="n" horiz-adv-x="886" 
d="M383 1016l-18 -82l-11 -55q135 162 318 161q143 0 220 -108.5t48 -265.5l-137 -666h-86l141 666q20 121 -41 204.5t-172 83.5q-102 0 -196.5 -73.5t-133.5 -184.5l-147 -696h-86l197 930q18 76 8 86h96z" />
    <glyph glyph-name="o" unicode="o" horiz-adv-x="1050" 
d="M240 506q-39 -182 49 -311t252 -129q160 0 301 129t180 311q39 184 -47 314t-246 130q-164 0 -306 -130t-183 -314zM154 506q45 219 220 374.5t374 155.5q197 0 303 -155.5t59 -374.5q-47 -217 -219 -371.5t-369 -154.5q-199 0 -307 154.5t-61 371.5z" />
    <glyph glyph-name="p" unicode="p" horiz-adv-x="1036" 
d="M205 178q2 -43 84 -74.5t200 -35.5q170 4 316.5 134t185.5 314q39 182 -53 310t-260 128q-127 0 -225.5 -34.5t-108.5 -83.5zM385 1022l-14 -61q145 82 325 81q205 -4 315.5 -156.5t65.5 -369.5q-47 -221 -224 -376.5t-382 -155.5q-188 0 -289 79l-98 -462h-84l262 1235
q0 4 1 10l4 23.5l6 35t5.5 38l4.5 35.5t2 27.5t-2 16.5h102z" />
    <glyph glyph-name="q" unicode="q" horiz-adv-x="1050" 
d="M1055 963l12 49h82l-301 -1411h-82l106 499q-131 -80 -315 -80h6h-6q-195 4 -303.5 153t-63.5 355q45 209 216.5 358.5t365.5 149.5q189 1 283 -73zM895 211l133 625q10 49 -67.5 83.5t-198.5 34.5h-6q-162 0 -303.5 -124.5t-180.5 -301.5q-37 -176 51.5 -299t249.5 -127
q117 0 209.5 32t112.5 77z" />
    <glyph glyph-name="r" unicode="r" horiz-adv-x="571" 
d="M729 1030l-37 -84q-14 4 -39 4q-102 0 -194 -73.5t-133 -184.5l-146 -692h-86l197 926q16 96 10 100h96l-32 -152q139 162 317 162q33 0 47 -6z" />
    <glyph glyph-name="s" unicode="s" horiz-adv-x="854" 
d="M961 907l-82 -51q-74 92 -238 92q-106 0 -187 -49t-96 -127q-16 -74 43.5 -136.5t163.5 -78.5q135 -20 208 -107.5t50 -195.5q-25 -119 -138.5 -194.5t-252.5 -75.5q-96 0 -179 35.5t-120 97.5l76 51q78 -100 235 -100q106 0 190.5 52t102.5 134q16 78 -42 142.5
t-163 80.5q-135 20 -209.5 106.5t-52.5 192.5q25 115 140.5 186.5t257.5 71.5q92 0 170 -35t123 -92z" />
    <glyph glyph-name="t" unicode="t" horiz-adv-x="696" 
d="M557 1415h86l-86 -405h277l-19 -88h-276l-195 -922h-82l195 922h-156l18 88h152z" />
    <glyph glyph-name="u" unicode="u" horiz-adv-x="921" 
d="M729 0l19 94l10 49q-61 -74 -145.5 -117.5t-170.5 -43.5q-141 0 -216.5 109.5t-45.5 266.5l-4 11l137 651h84l-137 -651l2 -11q-23 -119 40 -203.5t173 -84.5q102 0 195.5 75.5t128.5 182.5l147 696h86l-196 -926q-18 -90 -11 -98h-96z" />
    <glyph glyph-name="v" unicode="v" horiz-adv-x="1024" 
d="M463 0l-195 1024h92l175 -905l557 905h98l-635 -1024h-92z" />
    <glyph glyph-name="w" unicode="w" horiz-adv-x="1443" 
d="M1602 1024l-635 -1024l-93 6l-73 400l-256 -406l-92 6l-195 1018h92l174 -905l250 405l-94 500h98l168 -905l557 905h99z" />
    <glyph glyph-name="x" unicode="x" horiz-adv-x="909" 
d="M504 530l-209 494h108l172 -422l359 422h106l-426 -510l209 -514h-102l-186 442l-365 -442h-102z" />
    <glyph glyph-name="y" unicode="y" horiz-adv-x="1095" 
d="M25 -399l28 88q2 -4 7.5 -6t7.5 -7h4q6 0 22.5 -1t24.5 -1q74 0 152.5 50.5t131.5 138.5l125 203l-188 970h92l162 -864l524 864h92l-598 -964l-141 -240l-8 -18q-72 -104 -170 -164t-197 -60q-34 1 -71 11z" />
    <glyph glyph-name="z" unicode="z" horiz-adv-x="925" 
d="M94 0l19 88l819 848h-633l18 88h746l-19 -88l-819 -848h639l-18 -88h-752z" />
    <glyph glyph-name="braceleft" unicode="{" horiz-adv-x="456" 
d="M326 96q0 -10 32 -10l-16 -86q-41 0 -76 27.5t-28 68.5l106 496q8 39 -12.5 65.5t-59.5 26.5h-41l19 86h41q39 0 70.5 26.5t39.5 65.5l99 461v4l2 6q14 37 54 59.5t85 22.5l-18 -88q-35 0 -35 -4l-105 -485q-14 -27 -43.5 -47.5t-58.5 -20.5l-19 -86q31 0 52.5 -17.5
t23.5 -48.5z" />
    <glyph glyph-name="bar" unicode="|" horiz-adv-x="268" 
d="M117 2l311 1466h53l-311 -1466h-53z" />
    <glyph glyph-name="braceright" unicode="}" horiz-adv-x="385" 
d="M119 96l112 522q27 66 95 66l22 86q-33 0 -51 19.5t-21 48.5l105 485q-6 4 -41 4l18 88q51 0 80 -22.5t27 -59.5l2 -6v-4l-98 -461q-8 -39 9 -65.5t54 -26.5h43l-18 -86h-43q-37 0 -66 -25.5t-37 -66.5l-106 -496q-8 -39 -54.5 -67.5t-91.5 -28.5l17 86q27 0 43 10z" />
    <glyph glyph-name="asciitilde" unicode="~" horiz-adv-x="710" 
d="M471 625q-33 12 -78 12q-102 0 -166 -45l-20 63q84 51 199 52q41 0 99 -20.5t97 -20.5q104 0 168 45l16 -62q-86 -53 -194 -53q-74 0 -121 29z" />
    <glyph glyph-name="exclamdown" unicode="&#xa1;" horiz-adv-x="327" 
d="M410 1374q12 49 57 49q20 0 31.5 -14t7.5 -34.5t-21.5 -34t-38.5 -13.5q-44 0 -36 47zM457 1204l-254 -1204h-74l254 1204h74z" />
    <glyph glyph-name="cent" unicode="&#xa2;" horiz-adv-x="978" 
d="M713 1032l28 139h97l-29 -139q170 -18 266 -155l-74 -64q-74 115 -210 133l-187 -876q139 18 262 129l49 -60q-162 -135 -329 -153l-29 -140h-96l28 140q-182 16 -279 167.5t-54 354.5q45 205 206 355.5t351 168.5zM242 508q-35 -168 40.5 -294t225.5 -144l186 876
q-158 -18 -286.5 -143t-165.5 -295z" />
    <glyph glyph-name="sterling" unicode="&#xa3;" horiz-adv-x="1138" 
d="M889 616h-375l-113 -530h691l-17 -86h-776l129 616h-246l19 86h245l152 713h86l-152 -713h375z" />
    <glyph glyph-name="yen" unicode="&#xa5;" horiz-adv-x="1394" 
d="M418 303l18 90h299l17 78h-299l20 90h299l16 80l-415 774h116l359 -692l657 692h115l-743 -774l-17 -80h299l-20 -90h-299l-17 -78h299l-18 -90h-299l-64 -303h-88l64 303h-299z" />
    <glyph glyph-name="brokenbar" unicode="&#xa6;" horiz-adv-x="268" 
d="M348 840h-53l133 628h53zM266 705h53l-149 -703h-53z" />
    <glyph glyph-name="section" unicode="&#xa7;" horiz-adv-x="729" 
d="M772 979l-53 -82q-74 41 -160 41q-51 0 -92 -14q37 -100 135 -152q94 -51 139 -137t25 -178q-20 -100 -123 -178q0 -18 -4 -48q-25 -113 -124 -181t-214 -68q-100 0 -186 49l51 71q74 -37 149 -36q86 0 154 44t86 121q-59 -23 -131 -22q-102 0 -184 47l53 76
q74 -39 153 -39q51 0 107 20q-23 102 -131 160q-96 49 -143.5 138t-26.5 180q23 109 121 172q0 25 6 53q23 109 117 172t213 63q100 0 190 -45l-55 -82q-70 41 -158 41q-80 0 -143.5 -41t-77.5 -110q0 -2 -1 -4t-1 -4q55 18 119 18q94 0 190 -45zM649 391q25 35 31 70
q14 68 -22.5 135.5t-112.5 105.5q-115 55 -156 172q-41 -35 -51 -92q-14 -63 22.5 -128.5t114.5 -106.5q119 -61 156 -178q6 6 18 22z" />
    <glyph glyph-name="dieresis" unicode="&#xa8;" horiz-adv-x="538" 
d="M362.5 1331.5q4.5 22.5 25 38.5t44.5 16q23 0 38 -17t11 -37.5t-26.5 -38t-44.5 -17.5q-25 0 -38.5 16.5t-9 39zM637 1331.5q4 22.5 24.5 38.5t45.5 16q23 0 38 -17t11 -37.5t-26.5 -38t-45.5 -17.5q-25 0 -38 16.5t-9 39z" />
    <glyph glyph-name="ordfeminine" unicode="&#xaa;" horiz-adv-x="366" 
d="M465 655h-70l2 13q-35 -20 -80 -21q-53 0 -82.5 35t-19.5 86q10 49 55 82t101 33h71l2 12q8 35 -5 62.5t-40 27.5q-57 0 -96 -12l2 51q47 12 105 12q47 0 70.5 -40t13.5 -101l-27 -115q-20 -102 -2 -125zM432 834h-76q-31 0 -58.5 -20.5t-31.5 -45.5q-4 -27 13.5 -47.5
t48.5 -20.5q29 0 57.5 20.5t32.5 47.5z" />
    <glyph glyph-name="guillemotleft" unicode="&#xab;" horiz-adv-x="1089" 
d="M530 569l637 457l43 -65l-561 -402l295 -473l-78 -57zM182 569l637 457l43 -65l-561 -402l295 -473l-78 -57z" />
    <glyph glyph-name="logicalnot" unicode="&#xac;" horiz-adv-x="1355" 
d="M1444 793l-98 -459h-86l79 373h-1103l18 86h1190z" />
    <glyph glyph-name="degree" unicode="&#xb0;" horiz-adv-x="512" 
d="M371 1221q-10 -53 26.5 -97.5t94.5 -44.5q49 0 101 45t62 97q12 57 -20.5 104t-81.5 47q-57 0 -113.5 -46t-68.5 -105zM313 1221q18 88 89 145t161 57q80 0 125 -58t27 -144q-16 -80 -86 -137.5t-150 -57.5q-88 0 -135 57.5t-31 137.5z" />
    <glyph glyph-name="plusminus" unicode="&#xb1;" horiz-adv-x="925" 
d="M709 942l-66 -311h-86l66 311h-310l19 86h309l66 309h86l-66 -309h311l-18 -86h-311zM885 315h-707l19 86h706z" />
    <glyph glyph-name="uni00B2" unicode="&#xb2;" horiz-adv-x="573" 
d="M311 711h336l-12 -62h-428l12 62l393 354q61 55 76 121q14 70 -30 122t-113 52q-74 0 -152 -64l-39 52q102 76 202.5 75.5t157 -70t36.5 -167.5q-20 -88 -101 -168z" />
    <glyph glyph-name="uni00B3" unicode="&#xb3;" horiz-adv-x="542" 
d="M240 766h16q43 -66 125 -66q63 0 124.5 45.5t76.5 106.5q12 59 -25 104t-96 52h-111l15 63h110q59 4 116.5 47t70.5 96q10 53 -33 96.5t-107 43.5q-88 0 -164 -68l-36 49q92 80 213 80q96 0 153 -58.5t41 -142.5q-29 -125 -154 -176q94 -76 70 -186q-18 -88 -99 -150.5
t-177 -62.5q-121 0 -176 86z" />
    <glyph glyph-name="acute" unicode="&#xb4;" horiz-adv-x="428" 
d="M639 1311l-262 -178h-47l174 178h135z" />
    <glyph glyph-name="paragraph" unicode="&#xb6;" horiz-adv-x="782" 
d="M981 1413l-299 -1409h-82l299 1409h82zM850 1415l-299 -1415h-160l156 741q-139 0 -216 99.5t-46 238.5q29 139 147.5 237.5t257.5 98.5h160zM541 834l108 505q-94 0 -176 -72.5t-104 -179.5q-23 -104 27.5 -178.5t144.5 -74.5z" />
    <glyph glyph-name="periodcentered" unicode="&#xb7;" horiz-adv-x="460" 
d="M264 643q10 39 49 70.5t82 31.5t71 -31.5t17 -70.5q-8 -39 -48 -69.5t-83 -30.5t-69.5 30.5t-18.5 69.5z" />
    <glyph glyph-name="uni00B9" unicode="&#xb9;" horiz-adv-x="538" 
d="M379 1143l-49 59l303 213h86l-129 -614h-86l106 504z" />
    <glyph glyph-name="ordmasculine" unicode="&#xba;" horiz-adv-x="475" 
d="M283 831q-10 -53 21.5 -97t82.5 -44q45 0 94 45t60 96q12 59 -16.5 106.5t-73.5 47.5q-53 0 -104.5 -47.5t-63.5 -106.5zM231 831q18 88 84 146.5t146 58.5q74 0 112.5 -58t20.5 -147q-16 -80 -80.5 -137t-136.5 -57q-80 0 -121 57t-25 137z" />
    <glyph glyph-name="guillemotright" unicode="&#xbb;" horiz-adv-x="1073" 
d="M336 1026l444 -457l-569 -540l-53 57l499 473l-393 402zM684 1026l444 -457l-569 -540l-53 57l500 473l-394 402z" />
    <glyph glyph-name="onequarter" unicode="&#xbc;" horiz-adv-x="782" 
d="M711 707l32 -21l-305 -383h211l33 158h43l-33 -158h101l-11 -43h-100l-53 -260h-43l53 260h-260l10 43zM293 901l-25 29l152 106h43l-127 -600h-43l115 545z" />
    <glyph glyph-name="onehalf" unicode="&#xbd;" horiz-adv-x="727" 
d="M268 903l-24 29l151 106h43l-127 -602h-43l117 547zM678 344l-332 -303h330l-8 -41h-387l8 41l368 334q55 49 72 117q14 76 -26.5 126t-116.5 50q-74 0 -135 -50l-25 31q82 61 168 62q92 0 144.5 -64.5t33.5 -154.5q-18 -80 -94 -148z" />
    <glyph glyph-name="threequarters" unicode="&#xbe;" horiz-adv-x="937" 
d="M150 389l36 29q39 -59 123 -60q72 0 132.5 45.5t74.5 110.5q18 82 -50.5 126t-170.5 28l8 43h94q70 2 125.5 44t67.5 97q12 61 -29 103t-112 42q-88 0 -152 -57l-25 31q80 68 185 67q90 0 142 -54t36 -132q-12 -53 -55 -97t-101 -67q49 -25 70.5 -72t9.5 -102
q-18 -84 -94 -141.5t-166 -57.5q-100 0 -149 74zM797 264h-260l8 43l321 404l33 -21l-303 -383h209l35 158h43l-35 -158h102l-8 -43h-102l-56 -260h-43z" />
    <glyph glyph-name="questiondown" unicode="&#xbf;" horiz-adv-x="884" 
d="M686 1415h88l53 -661l-18 -88h-203q-119 -4 -220 -91.5t-126 -207.5q-27 -121 41 -210t188 -89q160 0 283 147l47 -63q-152 -172 -350 -172q-154 0 -241 114.5t-52 272.5q33 156 166 271.5t283 115.5h114zM776 1610q-6 -25 -24.5 -41.5t-40.5 -16.5q-27 0 -39.5 16.5
t-5.5 41.5q4 27 23.5 43t45.5 16q23 0 34 -16t7 -43z" />
    <glyph glyph-name="Agrave" unicode="&#xc0;" 
d="M547 674h436l-92 590zM66 0l821 1415h71l224 -1415h-90l-95 588h-497l-344 -588h-90zM938 1524l-184 178h135l96 -178h-47z" />
    <glyph glyph-name="Aacute" unicode="&#xc1;" 
d="M547 674h436l-92 590zM66 0l821 1415h71l224 -1415h-90l-95 588h-497l-344 -588h-90zM1227 1702l-262 -178h-47l174 178h135z" />
    <glyph glyph-name="Acircumflex" unicode="&#xc2;" 
d="M547 674h436l-92 590zM66 0l821 1415h71l224 -1415h-90l-95 588h-497l-344 -588h-90z" />
    <glyph glyph-name="Atilde" unicode="&#xc3;" 
d="M956 1610q-35 12 -75 12q-92 0 -154 -41l-18 57q88 49 186 50q39 0 92 -18.5t88 -18.5q100 0 160 41l16 -58q-82 -49 -186 -49q-66 0 -109 25zM547 674h436l-92 590zM66 0l821 1415h71l224 -1415h-90l-95 588h-497l-344 -588h-90z" />
    <glyph glyph-name="Adieresis" unicode="&#xc4;" 
d="M547 674h436l-92 590zM66 0l821 1415h71l224 -1415h-90l-95 588h-497l-344 -588h-90zM745.5 1562.5q4.5 22.5 25 39t44.5 16.5q23 0 38 -17.5t11 -38t-26.5 -38t-44.5 -17.5q-25 0 -38.5 16.5t-9 39zM1020 1562.5q4 22.5 24.5 39t45.5 16.5q23 0 38 -17.5t11 -38
t-26.5 -38t-45.5 -17.5q-25 0 -38 16.5t-9 39z" />
    <glyph glyph-name="AE" unicode="&#xc6;" horiz-adv-x="2213" 
d="M1233 674l160 659h-469l-377 -659h686zM887 1415h538h783l-17 -82h-731l-114 -536h624l-18 -86h-625l-133 -625h731l-16 -86h-817l125 588h-717l-344 -588h-90z" />
    <glyph glyph-name="Ccedilla" unicode="&#xc7;" horiz-adv-x="1298" 
d="M1456 1225l-72 -58l-2 2q-125 172 -342 172q-233 0 -438 -189t-260 -452q-55 -258 69 -447.5t357 -189.5q213 0 412 168l49 -57q-223 -193 -500 -192l-29 -48q25 0 59 -34.5t23 -79.5q-14 -66 -127 -121l-55 51q27 0 67 18.5t48 55.5q8 33 -24 48t-66 15h-17l25 105
q-215 49 -322.5 246.5t-52.5 461.5q63 303 296.5 513t502.5 210q256 0 397 -194l1 -2z" />
    <glyph glyph-name="Egrave" unicode="&#xc8;" horiz-adv-x="993" 
d="M971 797l-19 -86h-624l-133 -625h731l-17 -86h-817l299 1415h817l-16 -82h-731l-115 -536h625zM797 1524l-185 178h136l96 -178h-47z" />
    <glyph glyph-name="Eacute" unicode="&#xc9;" horiz-adv-x="993" 
d="M971 797l-19 -86h-624l-133 -625h731l-17 -86h-817l299 1415h817l-16 -82h-731l-115 -536h625zM1057 1702l-262 -178h-47l174 178h135z" />
    <glyph glyph-name="Edieresis" unicode="&#xcb;" horiz-adv-x="993" 
d="M971 797l-19 -86h-624l-133 -625h731l-17 -86h-817l299 1415h817l-16 -82h-731l-115 -536h625zM631 1564.5q4 22.5 24.5 39t44.5 16.5q23 0 38.5 -17.5t11 -38t-27 -38t-44.5 -17.5q-25 0 -38 16.5t-9 39zM905 1564.5q4 22.5 24.5 39t45.5 16.5q23 0 38 -17.5t11 -38
t-26.5 -38t-45.5 -17.5q-25 0 -38 16.5t-9 39z" />
    <glyph glyph-name="Igrave" unicode="&#xcc;" horiz-adv-x="268" 
d="M504 1415l-299 -1415h-86l299 1415h86zM496 1524l-185 178h135l97 -178h-47z" />
    <glyph glyph-name="Iacute" unicode="&#xcd;" horiz-adv-x="315" 
d="M487 1415l-299 -1415h-86l299 1415h86zM758 1702l-262 -178h-47l174 178h135z" />
    <glyph glyph-name="Icircumflex" unicode="&#xce;" horiz-adv-x="282" 
d="M487 1415l-299 -1415h-86l299 1415h86z" />
    <glyph glyph-name="Idieresis" unicode="&#xcf;" horiz-adv-x="282" 
d="M487 1415l-299 -1415h-86l299 1415h86zM278.5 1562.5q4.5 22.5 25 39t44.5 16.5q23 0 38 -17.5t11 -38t-26.5 -38t-44.5 -17.5q-25 0 -38.5 16.5t-9 39zM553 1562.5q4 22.5 24.5 39t45.5 16.5q23 0 38 -17.5t11 -38t-26.5 -38t-45.5 -17.5q-25 0 -38 16.5t-9 39z" />
    <glyph glyph-name="Eth" unicode="&#xd0;" horiz-adv-x="1337" 
d="M348 561h-139l18 86h140l161 768h523q205 -2 305 -208t38.5 -496.5t-246.5 -496.5t-392 -210v-4h-527zM1032 1329h-436l-143 -682h356l-18 -86h-357l-102 -475h440l2 4q168 4 324.5 185.5t210.5 435.5q53 252 -27 434t-250 184z" />
    <glyph glyph-name="Ntilde" unicode="&#xd1;" horiz-adv-x="1099" 
d="M397 1415h84l469 -1243l264 1243h86l-299 -1415h-86l-469 1249l-264 -1249h-84zM854 1546q-41 20 -100 21q-78 0 -125 -29l-13 61q70 33 150 33q55 0 123.5 -29.5t122.5 -29.5q74 0 125 29l10 -62q-66 -33 -150 -33q-88 0 -143 39z" />
    <glyph glyph-name="Ograve" unicode="&#xd2;" horiz-adv-x="1413" 
d="M1335 1167q-117 168 -348 168t-432 -183t-256 -445q-57 -266 64.5 -451.5t355.5 -185.5q238 0 438.5 184t257.5 453q59 278 -80 460zM1188 180q-225 -199 -487.5 -198.5t-409 210t-80.5 515.5q63 297 295.5 506.5t499.5 209.5q274 0 414.5 -207.5t76.5 -508.5
q-67 -320 -309 -527zM983 1524l-184 178h135l96 -178h-47z" />
    <glyph glyph-name="Oacute" unicode="&#xd3;" horiz-adv-x="1413" 
d="M1335 1167q-117 168 -348 168t-432 -183t-256 -445q-57 -266 64.5 -451.5t355.5 -185.5q238 0 438.5 184t257.5 453q59 278 -80 460zM1188 180q-225 -199 -487.5 -198.5t-409 210t-80.5 515.5q63 297 295.5 506.5t499.5 209.5q274 0 414.5 -207.5t76.5 -508.5
q-67 -320 -309 -527zM1339 1702l-262 -178h-47l174 178h135z" />
    <glyph glyph-name="Otilde" unicode="&#xd5;" horiz-adv-x="1413" 
d="M1335 1167q-117 168 -348 168t-432 -183t-256 -445q-57 -266 64.5 -451.5t355.5 -185.5q238 0 438.5 184t257.5 453q59 278 -80 460zM1188 180q-225 -199 -487.5 -198.5t-409 210t-80.5 515.5q63 297 295.5 506.5t499.5 209.5q274 0 414.5 -207.5t76.5 -508.5
q-67 -320 -309 -527zM1010 1548q-41 20 -101 21q-78 0 -125 -29l-12 62q70 33 150 32q55 0 123.5 -29.5t121.5 -29.5q74 0 125 29l11 -62q-66 -33 -150 -33q-88 0 -143 39z" />
    <glyph glyph-name="Odieresis" unicode="&#xd6;" horiz-adv-x="1413" 
d="M1335 1167q-117 168 -348 168t-432 -183t-256 -445q-57 -266 64.5 -451.5t355.5 -185.5q238 0 438.5 184t257.5 453q59 278 -80 460zM1188 180q-225 -199 -487.5 -198.5t-409 210t-80.5 515.5q63 297 295.5 506.5t499.5 209.5q274 0 414.5 -207.5t76.5 -508.5
q-67 -320 -309 -527zM842 1564.5q4 22.5 24.5 39t44.5 16.5q23 0 38.5 -17.5t11 -38t-27 -38t-44.5 -17.5q-25 0 -38 16.5t-9 39zM1116 1564.5q4 22.5 24.5 39t45.5 16.5q23 0 38 -17.5t11 -38t-26.5 -38t-45.5 -17.5q-25 0 -38 16.5t-9 39z" />
    <glyph glyph-name="multiply" unicode="&#xd7;" horiz-adv-x="751" 
d="M487 584l-266 -219l-49 59l266 221l-170 217l72 62l174 -219l264 219l49 -60l-266 -219l172 -221l-71 -59z" />
    <glyph glyph-name="Oslash" unicode="&#xd8;" horiz-adv-x="1413" 
d="M1188 180q-225 -199 -488 -198q-100 0 -196 36l-8 -18h-95l31 55q-139 86 -202.5 262.5t-18.5 389.5q63 297 295.5 506.5t499.5 209.5q104 0 198 -34l15 26h92l-35 -61q147 -94 206.5 -264t14.5 -383q-67 -320 -309 -527zM1335 1167q-49 66 -108 103l-676 -1170
q76 -31 168 -30q238 0 438.5 184t257.5 453q59 278 -80 460zM987 1335q-231 0 -432 -183t-256 -445q-39 -184 11 -338t169 -234l676 1170q-78 30 -168 30z" />
    <glyph glyph-name="Ugrave" unicode="&#xd9;" horiz-adv-x="1224" 
d="M481 1415l-225 -1061q-16 -119 92.5 -201.5t284.5 -82.5q170 0 311 83t174 201l225 1061h87l-226 -1061q-39 -154 -212 -263t-378 -109q-211 0 -342 109.5t-108 262.5l225 1061h92zM926 1524l-185 178h136l96 -178h-47z" />
    <glyph glyph-name="Uacute" unicode="&#xda;" horiz-adv-x="1224" 
d="M481 1415l-225 -1061q-16 -119 92.5 -201.5t284.5 -82.5q170 0 311 83t174 201l225 1061h87l-226 -1061q-39 -154 -212 -263t-378 -109q-211 0 -342 109.5t-108 262.5l225 1061h92zM1219 1702l-263 -178h-47l174 178h136z" />
    <glyph glyph-name="Udieresis" unicode="&#xdc;" horiz-adv-x="1224" 
d="M481 1415l-225 -1061q-16 -119 92.5 -201.5t284.5 -82.5q170 0 311 83t174 201l225 1061h87l-226 -1061q-39 -154 -212 -263t-378 -109q-211 0 -342 109.5t-108 262.5l225 1061h92zM747.5 1562.5q4.5 22.5 25 39t44.5 16.5q23 0 38 -17.5t11 -38t-26.5 -38t-44.5 -17.5
q-25 0 -38.5 16.5t-9 39zM1022 1562.5q4 22.5 24.5 39t45.5 16.5q23 0 38 -17.5t11 -38t-26.5 -38t-45.5 -17.5q-25 0 -38 16.5t-9 39z" />
    <glyph glyph-name="Yacute" unicode="&#xdd;" horiz-adv-x="1394" 
d="M1505 1415h115l-743 -774l-136 -641h-88l135 641l-415 774h116l359 -692zM1321 1702l-262 -178h-47l174 178h135z" />
    <glyph glyph-name="Thorn" unicode="&#xde;" horiz-adv-x="1095" 
d="M516 1417l-98 -456q150 80 319 79q207 -4 317.5 -156.5t65.5 -369.5q-47 -221 -224 -376.5t-382 -155.5q-141 0 -289 79l-98 -462h-84l387 1818h86zM387 842l-131 -647q-14 -49 68 -86t208 -41q166 4 313.5 134t186.5 310q37 178 -55 309t-258 131q-119 0 -214 -31.5
t-118 -78.5z" />
    <glyph glyph-name="germandbls" unicode="&#xdf;" horiz-adv-x="1064" 
d="M846 1333h-37h-330l-114 -536h366q123 4 223.5 80.5t122.5 189.5q23 104 -44.5 182t-186.5 84zM346 711l-225 -1065h-86l375 1769h86h366q154 -2 242 -105.5t59 -242.5q-20 -102 -93 -186t-177 -131q96 -45 139 -139.5t19 -209.5q-35 -162 -176.5 -278.5t-311.5 -118.5
h-174l-65 82h256q133 6 245.5 98t139.5 217q27 123 -53.5 212t-235.5 98h-330z" />
    <glyph glyph-name="agrave" unicode="&#xe0;" horiz-adv-x="831" 
d="M662 0l16 82q-125 -102 -270 -102q-135 0 -213 91t-52 218q29 135 149 223t263 88h233l9 45q29 127 -13.5 215t-138.5 90h-2q-133 0 -244 -30l-4 81q129 35 267 35h2q119 -2 185 -103.5t44 -246.5l-4 -20q-43 -176 -78 -347q-68 -303 -53 -319h-96zM721 289l49 227h-233
q-109 0 -197 -63.5t-109 -163.5q-18 -92 39.5 -156.5t157.5 -64.5q102 0 188.5 64.5t104.5 156.5zM651 1133l-184 178h135l96 -178h-47z" />
    <glyph glyph-name="aacute" unicode="&#xe1;" horiz-adv-x="831" 
d="M662 0l16 82q-125 -102 -270 -102q-135 0 -213 91t-52 218q29 135 149 223t263 88h233l9 45q29 127 -13.5 215t-138.5 90h-2q-133 0 -244 -30l-4 81q129 35 267 35h2q119 -2 185 -103.5t44 -246.5l-4 -20q-43 -176 -78 -347q-68 -303 -53 -319h-96zM721 289l49 227h-233
q-109 0 -197 -63.5t-109 -163.5q-18 -92 39.5 -156.5t157.5 -64.5q102 0 188.5 64.5t104.5 156.5zM915 1311l-262 -178h-47l174 178h135z" />
    <glyph glyph-name="acircumflex" unicode="&#xe2;" horiz-adv-x="831" 
d="M662 0l16 82q-125 -102 -270 -102q-135 0 -213 91t-52 218q29 135 149 223t263 88h233l9 45q29 127 -13.5 215t-138.5 90h-2q-133 0 -244 -30l-4 81q129 35 267 35h2q119 -2 185 -103.5t44 -246.5l-4 -20q-43 -176 -78 -347q-68 -303 -53 -319h-96zM721 289l49 227h-233
q-109 0 -197 -63.5t-109 -163.5q-18 -92 39.5 -156.5t157.5 -64.5q102 0 188.5 64.5t104.5 156.5zM440 1163l267 217l174 -219l-64 -51l-133 170l-205 -170z" />
    <glyph glyph-name="atilde" unicode="&#xe3;" horiz-adv-x="831" 
d="M635 1176q-35 10 -70 10q-98 0 -159 -45l-21 57q86 53 190 53q37 0 88.5 -16t81.5 -16q102 0 170 47l17 -58q-82 -55 -193 -55q-63 0 -104 23zM662 0l16 82q-125 -102 -270 -102q-135 0 -213 91t-52 218q29 135 149 223t263 88h233l9 45q29 127 -13.5 215t-138.5 90h-2
q-133 0 -244 -30l-4 81q129 35 267 35h2q119 -2 185 -103.5t44 -246.5l-4 -20q-43 -176 -78 -347q-68 -303 -53 -319h-96zM721 289l49 227h-233q-109 0 -197 -63.5t-109 -163.5q-18 -92 39.5 -156.5t157.5 -64.5q102 0 188.5 64.5t104.5 156.5z" />
    <glyph glyph-name="adieresis" unicode="&#xe4;" horiz-adv-x="831" 
d="M522 1331.5q4 22.5 24.5 38.5t45.5 16q23 0 38 -17t11 -37.5t-26.5 -38t-45.5 -17.5q-25 0 -38 16.5t-9 39zM797 1331.5q4 22.5 24.5 38.5t44.5 16q23 0 38.5 -17t11 -37.5t-27 -38t-44.5 -17.5q-25 0 -38 16.5t-9 39zM662 0l16 82q-125 -102 -270 -102q-135 0 -213 91
t-52 218q29 135 149 223t263 88h233l9 45q29 127 -13.5 215t-138.5 90h-2q-133 0 -244 -30l-4 81q129 35 267 35h2q119 -2 185 -103.5t44 -246.5l-4 -20q-43 -176 -78 -347q-68 -303 -53 -319h-96zM721 289l49 227h-233q-109 0 -197 -63.5t-109 -163.5q-18 -92 39.5 -156.5
t157.5 -64.5q102 0 188.5 64.5t104.5 156.5z" />
    <glyph glyph-name="ae" unicode="&#xe6;" horiz-adv-x="1521" 
d="M662 0l16 82q-125 -102 -270 -102q-135 0 -213 91t-52 218q27 129 145 220t253 91h235q10 39 27 66q23 117 -23.5 198.5t-134.5 85.5h-2q-133 0 -244 -30l-4 81q129 35 267 35h2q90 -2 150 -62.5t77 -156.5q80 102 180 161.5t199 59.5q170 0 255 -149.5t38 -368.5
l-11 -49h-710l-19 -94q4 -135 76 -223t186 -88q113 0 283 75l18 -75q-111 -55 -262 -82h-2q-16 -2 -53 -2q-96 0 -172 49t-117 137q-33 -160 -22 -168h-96zM862 555h627q23 166 -45 280.5t-193 114.5t-239.5 -114.5t-149.5 -280.5zM741 471l11 45h-230q-100 0 -185 -66.5
t-106 -160.5q-18 -92 39.5 -156.5t157.5 -64.5q102 0 188 64.5t105 156.5l14 63q-4 58 6 119z" />
    <glyph glyph-name="ccedilla" unicode="&#xe7;" horiz-adv-x="1009" 
d="M590 -18l-29 -56q25 0 58.5 -34.5t23.5 -79.5q-14 -66 -129 -125l-53 53q35 4 70.5 21.5t41.5 45.5q8 39 -22.5 55.5t-67.5 16.5q-4 0 -10 -1t-8 -1l27 111q-172 31 -259.5 177t-46.5 345q47 217 223.5 371.5t381.5 154.5q211 0 317 -162l-72 -59q-94 135 -264 135
q-168 0 -313.5 -129t-186.5 -311q-39 -184 53.5 -313t260.5 -129t311 127l49 -60q-163 -141 -356 -153z" />
    <glyph glyph-name="egrave" unicode="&#xe8;" horiz-adv-x="933" 
d="M504 66q113 0 282 75l19 -75q-111 -55 -262 -82h-2q-16 -2 -54 -2q-170 0 -264 142t-63 347l8 39q47 219 199.5 373.5t320.5 154.5q170 0 255 -149.5t38 -368.5l-10 -49h-723q-27 -170 47 -286.5t209 -118.5zM266 555h641q23 166 -44.5 280.5t-192.5 114.5
q-123 0 -239 -114.5t-165 -280.5zM711 1133l-185 178h136l96 -178h-47z" />
    <glyph glyph-name="eacute" unicode="&#xe9;" horiz-adv-x="933" 
d="M504 66q113 0 282 75l19 -75q-111 -55 -262 -82h-2q-16 -2 -54 -2q-170 0 -264 142t-63 347l8 39q47 219 199.5 373.5t320.5 154.5q170 0 255 -149.5t38 -368.5l-10 -49h-723q-27 -170 47 -286.5t209 -118.5zM266 555h641q23 166 -44.5 280.5t-192.5 114.5
q-123 0 -239 -114.5t-165 -280.5zM975 1311l-262 -178h-47l174 178h135z" />
    <glyph glyph-name="ecircumflex" unicode="&#xea;" horiz-adv-x="933" 
d="M504 66q113 0 282 75l19 -75q-111 -55 -262 -82h-2q-16 -2 -54 -2q-170 0 -264 142t-63 347l8 39q47 219 199.5 373.5t320.5 154.5q170 0 255 -149.5t38 -368.5l-10 -49h-723q-27 -170 47 -286.5t209 -118.5zM266 555h641q23 166 -44.5 280.5t-192.5 114.5
q-123 0 -239 -114.5t-165 -280.5zM492 1163l266 217l174 -219l-64 -51l-133 170l-205 -170z" />
    <glyph glyph-name="edieresis" unicode="&#xeb;" horiz-adv-x="933" 
d="M504 66q113 0 282 75l19 -75q-111 -55 -262 -82h-2q-16 -2 -54 -2q-170 0 -264 142t-63 347l8 39q47 219 199.5 373.5t320.5 154.5q170 0 255 -149.5t38 -368.5l-10 -49h-723q-27 -170 47 -286.5t209 -118.5zM266 555h641q23 166 -44.5 280.5t-192.5 114.5
q-123 0 -239 -114.5t-165 -280.5zM553 1331.5q4 22.5 24.5 38.5t45.5 16q23 0 38 -17t11 -37.5t-26.5 -38t-45.5 -17.5q-25 0 -38 16.5t-9 39zM827 1331.5q4 22.5 24.5 38.5t45.5 16q23 0 38 -17t11 -37.5t-26.5 -38t-45.5 -17.5q-25 0 -38 16.5t-9 39z" />
    <glyph glyph-name="igrave" unicode="&#xec;" horiz-adv-x="432" 
d="M197 0l217 1024h84l-217 -1024h-84zM496 1133l-185 178h135l97 -178h-47z" />
    <glyph glyph-name="iacute" unicode="&#xed;" horiz-adv-x="432" 
d="M135 0l217 1024h84l-217 -1024h-84zM655 1311l-262 -178h-47l174 178h135z" />
    <glyph glyph-name="icircumflex" unicode="&#xee;" horiz-adv-x="362" 
d="M135 0l217 1024h84l-217 -1024h-84zM207 1163l266 217l174 -219l-63 -51l-133 170l-205 -170z" />
    <glyph glyph-name="idieresis" unicode="&#xef;" horiz-adv-x="362" 
d="M135 0l217 1024h84l-217 -1024h-84zM307 1331.5q4 22.5 24.5 38.5t45.5 16q23 0 38 -17t11 -37.5t-26.5 -38t-45.5 -17.5q-25 0 -38 16.5t-9 39zM500 1331.5q4 22.5 24.5 38.5t44.5 16q23 0 38.5 -17t11 -37.5t-27 -38t-44.5 -17.5q-25 0 -38 16.5t-9 39z" />
    <glyph glyph-name="eth" unicode="&#xf0;" horiz-adv-x="1001" 
d="M289 985q0 2 1 7t1 7q37 176 188.5 301t327.5 125t274.5 -119.5t69.5 -291.5l-2 -6q-12 -96 -68 -344q-37 -180 -90 -314q-63 -160 -211.5 -262t-314.5 -102q-98 0 -181 46t-128 122l98 67q76 -147 244 -147q135 0 250.5 84t171.5 215q55 150 92 323q8 45 14 70
q-166 -186 -401 -186q-170 0 -269.5 117.5t-66.5 287.5zM371 989q-23 -135 56 -230t214 -95q145 0 268 99t154 243q29 133 -53 232t-219 99q-143 0 -266 -103.5t-154 -244.5z" />
    <glyph glyph-name="ntilde" unicode="&#xf1;" horiz-adv-x="886" 
d="M680 1264q-33 12 -78 12q-80 0 -156 -45l-16 59q82 49 193 49q39 0 90 -17t86 -17q98 0 159 45l17 -60q-86 -51 -193 -51q-61 0 -102 25zM383 1016l-18 -82l-11 -55q135 162 318 161q143 0 220 -108.5t48 -265.5l-137 -666h-86l141 666q20 121 -41 204.5t-172 83.5
q-102 0 -196.5 -73.5t-133.5 -184.5l-147 -696h-86l197 930q18 76 8 86h96z" />
    <glyph glyph-name="ograve" unicode="&#xf2;" horiz-adv-x="1079" 
d="M240 506q-39 -182 49 -311t252 -129q160 0 301 129t180 311q39 184 -47 314t-246 130q-164 0 -306 -130t-183 -314zM154 506q45 219 220 374.5t374 155.5q197 0 303 -155.5t59 -374.5q-47 -217 -219 -371.5t-369 -154.5q-199 0 -307 154.5t-61 371.5zM784 1133l-184 178
h135l96 -178h-47z" />
    <glyph glyph-name="oacute" unicode="&#xf3;" horiz-adv-x="1079" 
d="M240 506q-39 -182 49 -311t252 -129q160 0 301 129t180 311q39 184 -47 314t-246 130q-164 0 -306 -130t-183 -314zM154 506q45 219 220 374.5t374 155.5q197 0 303 -155.5t59 -374.5q-47 -217 -219 -371.5t-369 -154.5q-199 0 -307 154.5t-61 371.5zM1061 1311
l-262 -178h-47l174 178h135z" />
    <glyph glyph-name="ocircumflex" unicode="&#xf4;" horiz-adv-x="1050" 
d="M240 506q-39 -182 49 -311t252 -129q160 0 301 129t180 311q39 184 -47 314t-246 130q-164 0 -306 -130t-183 -314zM154 506q45 219 220 374.5t374 155.5q197 0 303 -155.5t59 -374.5q-47 -217 -219 -371.5t-369 -154.5q-199 0 -307 154.5t-61 371.5zM551 1163l266 217
l174 -219l-63 -51l-133 170l-205 -170z" />
    <glyph glyph-name="otilde" unicode="&#xf5;" horiz-adv-x="1050" 
d="M240 506q-39 -182 49 -311t252 -129q160 0 301 129t180 311q39 184 -47 314t-246 130q-164 0 -306 -130t-183 -314zM154 506q45 219 220 374.5t374 155.5q197 0 303 -155.5t59 -374.5q-47 -217 -219 -371.5t-369 -154.5q-199 0 -307 154.5t-61 371.5zM774 1223
q-41 20 -100 20q-78 0 -125 -29l-12 62q70 33 149 33q55 0 124 -30t122 -30q74 0 125 29l10 -61q-66 -33 -149 -33q-89 0 -144 39z" />
    <glyph glyph-name="odieresis" unicode="&#xf6;" horiz-adv-x="1079" 
d="M240 506q-39 -182 49 -311t252 -129q160 0 301 129t180 311q39 184 -47 314t-246 130q-164 0 -306 -130t-183 -314zM154 506q45 219 220 374.5t374 155.5q197 0 303 -155.5t59 -374.5q-47 -217 -219 -371.5t-369 -154.5q-199 0 -307 154.5t-61 371.5zM637 1331.5
q4 22.5 24.5 38.5t45.5 16q23 0 38 -17t11 -37.5t-26.5 -38t-45.5 -17.5q-25 0 -38 16.5t-9 39zM911 1331.5q4 22.5 24.5 38.5t45.5 16q23 0 38 -17t11 -37.5t-26.5 -38t-45.5 -17.5q-25 0 -38 16.5t-9 39z" />
    <glyph glyph-name="divide" unicode="&#xf7;" horiz-adv-x="870" 
d="M424 287l29 131h131l-29 -131h-131zM532 793l27 131h131l-26 -131h-132zM899 559h-706l16 86h706z" />
    <glyph glyph-name="oslash" unicode="&#xf8;" horiz-adv-x="1050" 
d="M154 506q45 219 220 374.5t374 155.5q197 0 305 -162l-78 -57q-84 133 -246 133q-164 0 -306 -130t-183 -314q-25 -117 4 -215l-78 -58q-43 121 -12 273zM1022 506q29 131 -14 248l79 57q59 -137 23 -305q-47 -217 -219 -371.5t-369 -154.5q-223 0 -325 186l73 55
q82 -156 271 -155q160 0 301 129t180 311z" />
    <glyph glyph-name="ugrave" unicode="&#xf9;" horiz-adv-x="921" 
d="M729 0l19 94l10 49q-61 -74 -145.5 -117.5t-170.5 -43.5q-141 0 -216.5 109.5t-45.5 266.5l-4 11l137 651h84l-137 -651l2 -11q-23 -119 40 -203.5t173 -84.5q102 0 195.5 75.5t128.5 182.5l147 696h86l-196 -926q-18 -90 -11 -98h-96zM709 1133l-185 178h135l97 -178
h-47z" />
    <glyph glyph-name="uacute" unicode="&#xfa;" horiz-adv-x="921" 
d="M729 0l19 94l10 49q-61 -74 -145.5 -117.5t-170.5 -43.5q-141 0 -216.5 109.5t-45.5 266.5l-4 11l137 651h84l-137 -651l2 -11q-23 -119 40 -203.5t173 -84.5q102 0 195.5 75.5t128.5 182.5l147 696h86l-196 -926q-18 -90 -11 -98h-96zM952 1311l-262 -178h-47l174 178
h135z" />
    <glyph glyph-name="ucircumflex" unicode="&#xfb;" horiz-adv-x="921" 
d="M729 0l19 94l10 49q-61 -74 -145.5 -117.5t-170.5 -43.5q-141 0 -216.5 109.5t-45.5 266.5l-4 11l137 651h84l-137 -651l2 -11q-23 -119 40 -203.5t173 -84.5q102 0 195.5 75.5t128.5 182.5l147 696h86l-196 -926q-18 -90 -11 -98h-96zM485 1163l267 217l174 -219
l-64 -51l-133 170l-205 -170z" />
    <glyph glyph-name="udieresis" unicode="&#xfc;" horiz-adv-x="921" 
d="M729 0l19 94l10 49q-61 -74 -145.5 -117.5t-170.5 -43.5q-141 0 -216.5 109.5t-45.5 266.5l-4 11l137 651h84l-137 -651l2 -11q-23 -119 40 -203.5t173 -84.5q102 0 195.5 75.5t128.5 182.5l147 696h86l-196 -926q-18 -90 -11 -98h-96zM547 1331.5q4 22.5 24.5 38.5
t44.5 16q23 0 38.5 -17t11.5 -37.5t-27 -38t-45 -17.5q-25 0 -38 16.5t-9 39zM821 1331.5q4 22.5 24.5 38.5t45.5 16q23 0 38 -17t11 -37.5t-26.5 -38t-45.5 -17.5q-25 0 -38 16.5t-9 39z" />
    <glyph glyph-name="yacute" unicode="&#xfd;" horiz-adv-x="1095" 
d="M25 -399l28 88q2 -4 7.5 -6t7.5 -7h4q6 0 22.5 -1t24.5 -1q74 0 152.5 50.5t131.5 138.5l125 203l-188 970h92l162 -864l524 864h92l-598 -964l-141 -240l-8 -18q-72 -104 -170 -164t-197 -60q-34 1 -71 11zM1081 1311l-262 -178h-47l174 178h135z" />
    <glyph glyph-name="thorn" unicode="&#xfe;" horiz-adv-x="1058" 
d="M516 1417l-98 -456q150 80 319 79q207 -4 317.5 -156.5t65.5 -369.5q-47 -221 -224 -376.5t-382 -155.5q-141 0 -289 79l-98 -462h-84l387 1818h86zM387 842l-131 -647q-14 -49 68 -86t208 -41q166 4 313.5 134t186.5 310q37 178 -55 309t-258 131q-119 0 -214 -31.5
t-118 -78.5z" />
    <glyph glyph-name="ydieresis" unicode="&#xff;" horiz-adv-x="1095" 
d="M25 -399l28 88q2 -4 7.5 -6t7.5 -7h4q6 0 22.5 -1t24.5 -1q74 0 152.5 50.5t131.5 138.5l125 203l-188 970h92l162 -864l524 864h92l-598 -964l-141 -240l-8 -18q-72 -104 -170 -164t-197 -60q-34 1 -71 11zM655 1331.5q4 22.5 24.5 38.5t45.5 16q23 0 38 -17t11 -37.5
t-26.5 -38t-45.5 -17.5q-25 0 -38 16.5t-9 39zM930 1331.5q4 22.5 24.5 38.5t44.5 16q23 0 38.5 -17t11 -37.5t-27 -38t-44.5 -17.5q-25 0 -38 16.5t-9 39z" />
  </font>
</defs>
</svg>
